PathFileType	4	(X/Y/Z)	C:\Users\ebm\Documents\Erivelton\Erivelton2\wc10.trc
DataRate	CameraRate	NumFrames	NumMarkers	Units	OrigDataRate	OrigDataStartFrame	OrigNumFrames
150.00	150.00	      12	28	mm	150.00	652	      1302
Frame#	Time	IJ			PX			C7			T8			RAC			RAS			RPS			RAI			RPI			RLE			RME			RRS			RUS			R3M			R5M			LAC			LAS			LPS			LAI			LPI			LLE			LME			LRS			LUS			L3M			L5M			RW			LW			V_mid_elbow_r			V_mid_elbow_l			V_mid_wrist_r			V_mid_wrist_l			V_mid_trunk_low			V_mid_trunk_upp			
		X1	Y1	Z1	X2	Y2	Z2	X3	Y3	Z3	X4	Y4	Z4	X5	Y5	Z5	X6	Y6	Z6	X7	Y7	Z7	X8	Y8	Z8	X9	Y9	Z9	X10	Y10	Z10	X11	Y11	Z11	X12	Y12	Z12	X13	Y13	Z13	X14	Y14	Z14	X15	Y15	Z15	X16	Y16	Z16	X17	Y17	Z17	X18	Y18	Z18	X19	Y19	Z19	X20	Y20	Z20	X21	Y21	Z21	X22	Y22	Z22	X23	Y23	Z23	X24	Y24	Z24	X25	Y25	Z25	X26	Y26	Z26	X27	Y27	Z27	X28	Y28	Z28	

652	4.340	669.26782	1025.72839	-234.20697	668.12506	859.95953	-209.81369	550.98767	1135.51477	-241.20399	462.97012	991.56445	-221.04141	615.22412	1081.61304	-29.74674	682.41290	896.06104	12.27169	640.19360	888.96497	38.13743	711.05823	824.75287	25.25521	667.20636	814.07007	53.92598	702.70593	752.54840	52.96609	658.48126	724.58673	-8.09402	908.49451	736.45532	-132.36855	916.96619	712.46094	-74.69534	992.00507	705.86426	-119.22894	979.68475	686.64771	-85.13728	577.60425	1063.14966	-419.72510	626.20959	901.39819	-487.02094	582.72174	879.33350	-487.39703	671.06897	835.73596	-497.19858	620.70593	805.20374	-498.24310	702.35834	749.15399	-507.26831	658.45044	713.94226	-454.66144	915.63123	731.19489	-338.41940	929.19916	703.92883	-396.20468	1001.97955	699.31543	-361.72507	979.09094	685.25531	-395.03775	572.39862	302.43616	97.70141	588.86908	300.42624	-531.22083	
653	4.347	677.43958	1025.71191	-233.96007	676.20111	860.02057	-209.68791	559.12677	1135.56812	-241.04187	471.09866	991.55231	-221.03030	623.17346	1081.63196	-29.56577	690.48199	896.05316	12.40362	648.24048	889.05750	38.37037	719.06903	824.85175	25.54792	674.98047	814.11981	54.16429	710.80121	752.60748	53.12205	666.53076	724.60138	-7.95926	916.61578	736.41376	-132.01875	925.05682	712.42462	-74.31015	1000.06940	705.88550	-118.76581	987.81830	686.60303	-84.74300	585.94025	1063.23401	-419.59149	634.43188	901.42444	-486.84485	591.06329	879.34686	-487.16492	679.21014	835.75970	-496.76495	628.91956	805.28778	-498.01834	710.64392	749.14508	-506.95062	666.59790	713.97852	-454.42029	923.88788	731.15759	-338.13791	937.41681	703.87671	-395.82355	1010.23700	699.26123	-361.30124	987.28156	685.23053	-394.63547	580.34009	302.51807	97.86327	597.18951	300.17139	-531.00409	
654	4.353	685.50427	1025.77515	-233.74039	684.44250	860.03705	-209.46367	567.25238	1135.59363	-240.86072	479.25610	991.59131	-220.98468	631.11981	1081.69580	-29.36912	698.33643	896.17865	12.75334	656.01642	889.10376	38.59710	726.94275	824.90692	25.82618	682.89203	814.19318	54.19203	718.80444	752.62439	53.25958	674.50739	724.63745	-7.78459	924.75049	736.43732	-131.69502	933.04071	712.39191	-73.95467	1008.16425	705.90222	-118.28126	995.89233	686.59338	-84.33916	594.18616	1063.32861	-419.48962	642.75006	901.44928	-486.66061	599.32971	879.44135	-487.05048	687.60455	835.66785	-496.73111	637.22229	805.24286	-497.78317	718.90271	749.13409	-506.67908	674.92059	714.02356	-454.13187	932.08240	731.20123	-337.72150	945.59412	703.89551	-395.45599	1018.47253	699.23370	-360.84219	995.44244	685.33313	-394.20474	588.36090	302.47461	98.00902	605.50299	299.91541	-530.90417	
655	4.360	693.15454	1025.78711	-233.48318	692.40234	860.05383	-209.35281	575.31689	1135.60144	-240.73680	487.37808	991.56268	-220.93857	639.10718	1081.73950	-29.24228	706.27411	896.20044	12.98044	663.92316	889.07098	38.59582	734.81927	824.96808	26.17705	690.90155	814.15186	54.28762	726.62280	752.68378	53.48424	682.49622	724.72040	-7.65319	932.76160	736.42950	-131.31844	941.07538	712.41998	-73.59454	1016.24841	705.91479	-117.95496	1003.93048	686.63385	-83.90599	602.61938	1063.02197	-419.04877	651.07245	901.54858	-486.45795	607.57538	879.47241	-486.90366	695.70380	835.80408	-496.38889	645.41992	805.37439	-497.58401	727.14417	749.20905	-506.39078	683.04828	714.14465	-453.85638	940.22284	731.13928	-337.32019	953.76447	703.90717	-395.01541	1026.61572	699.29114	-360.40344	1003.64380	685.33685	-393.81848	596.40961	302.43582	98.12138	613.97577	299.66638	-530.77124	
656	4.367	701.79456	1025.84875	-233.39014	700.50214	860.05048	-209.13731	583.53143	1135.56763	-240.57295	495.47830	991.49957	-220.90674	647.18005	1081.70520	-29.05608	714.20734	896.07391	13.25509	671.78766	889.04834	38.79918	742.72620	824.92999	26.54825	698.68451	814.15985	54.54345	734.56519	752.69196	53.72057	690.41656	724.78003	-7.48648	940.70862	736.45258	-130.97002	949.04724	712.46362	-73.27435	1024.21558	705.97070	-117.56913	1011.94720	686.68396	-83.53401	610.77045	1063.51099	-419.09338	659.37384	901.59576	-486.31314	615.99213	879.59033	-486.66223	702.62927	834.84113	-497.01062	653.73724	805.40857	-497.31610	735.35944	749.25897	-506.16626	691.36682	714.11072	-453.49307	948.25177	731.12793	-336.95972	961.92053	703.88721	-394.60822	1034.71277	699.29138	-359.99850	1011.83301	685.33588	-393.39661	604.62238	302.39462	98.21734	622.39417	299.46149	-530.61926	
657	4.373	709.92505	1025.76331	-233.07503	708.56219	859.96259	-208.86688	591.56586	1135.57996	-240.43388	503.60846	991.39294	-220.84796	655.06256	1081.74927	-28.85588	722.01514	896.27521	13.62889	679.50293	889.12048	39.01640	750.53790	824.96423	26.98821	706.37543	814.18048	54.82476	742.37079	752.72742	53.97145	698.34692	724.81104	-7.29281	948.68762	736.53796	-130.66551	956.97742	712.52478	-72.95985	1032.14587	706.11896	-117.22428	1019.95905	686.80750	-83.22447	619.08655	1063.60095	-418.89389	667.67859	901.77380	-486.08426	624.18506	879.70593	-486.62399	710.88483	834.90887	-496.72311	661.93811	805.56256	-497.17059	743.58582	749.34192	-505.84839	699.43933	714.26160	-453.29565	956.45648	731.15924	-336.51770	970.08942	703.93262	-394.21967	1042.88953	699.35156	-359.53479	1019.90625	685.41211	-392.94659	612.70197	302.35205	98.33725	630.92517	299.32062	-530.46716	
658	4.380	717.84686	1025.75378	-232.84271	716.54529	859.87775	-208.72250	599.63153	1135.44604	-240.23781	511.65942	991.28680	-220.83565	663.02716	1081.72900	-28.73702	729.93726	896.19061	13.93263	687.33990	889.08746	39.25953	758.33594	824.95978	27.47843	713.91187	814.28503	54.95374	750.23163	752.73260	54.25872	706.26721	724.78223	-7.11709	956.54724	736.63318	-130.33783	964.77655	712.58105	-72.66459	1039.97266	706.26904	-116.94533	1027.83191	686.96838	-82.89625	627.25562	1063.70776	-418.73447	675.95599	901.81793	-485.88132	632.54919	879.84198	-486.42059	719.18475	834.99475	-496.36240	670.21558	805.68701	-497.01697	751.75122	749.42322	-505.67719	707.66455	714.34930	-453.07565	964.61261	731.16919	-336.22043	978.25250	703.96222	-393.87354	1050.99731	699.49982	-359.16766	1028.19617	685.49084	-392.58194	620.72791	302.35388	98.45114	639.40283	299.14185	-530.39526	
659	4.387	726.02142	1025.63354	-232.57761	724.65247	859.74799	-208.45001	607.46179	1135.45703	-240.03223	519.74115	991.13739	-220.85281	670.98315	1081.65051	-28.55210	737.68365	896.21625	14.34232	695.12268	889.04034	39.55317	766.18726	824.96173	27.62831	721.60486	814.22986	55.22549	758.03088	752.69904	54.52200	714.15594	724.76593	-6.91380	964.47662	736.76282	-129.99924	972.75293	712.67316	-72.36733	1047.94775	706.46863	-116.58849	1035.75513	687.12927	-82.54461	635.52747	1063.79480	-418.51120	684.28070	901.96729	-485.65427	640.81580	880.00928	-486.37393	727.49219	835.03766	-496.29355	678.47394	805.76788	-496.89542	760.01978	749.47375	-505.42206	715.84772	714.38007	-452.81070	972.63275	731.25958	-335.79242	986.41589	704.05133	-393.49799	1059.18762	699.61993	-358.74246	1036.36169	685.58588	-392.20483	628.82050	302.28281	98.54409	647.91260	298.86490	-530.38586	
660	4.393	733.32819	1025.42969	-232.20938	732.72510	859.64221	-208.35034	615.74011	1135.22742	-239.86636	527.76483	991.02625	-220.86679	678.85870	1081.56506	-28.35470	745.59021	896.01019	14.64017	702.89868	888.93073	39.72791	774.03741	824.87946	28.06047	729.36395	814.11737	55.57323	765.79974	752.60126	54.82190	721.94702	724.70782	-6.63952	972.34448	736.88910	-129.78070	980.60510	712.80988	-72.05741	1055.81409	706.71088	-116.32887	1043.54944	687.35333	-82.21799	643.76202	1063.41467	-418.08722	692.59882	902.03778	-485.49716	649.06787	880.05109	-486.31229	735.74738	835.16620	-496.03256	686.75476	805.91547	-496.78555	768.28516	749.51099	-505.22479	724.12024	714.39325	-452.63669	980.72986	731.40045	-335.37711	994.53235	704.14752	-393.04889	1067.24463	699.76703	-358.29422	1044.41492	685.81024	-391.84830	636.90186	302.21869	98.65033	656.50189	298.64816	-530.14929	
661	4.400	741.02307	1025.32458	-231.97864	740.74725	859.44751	-208.12276	623.75586	1135.11597	-239.73534	535.78174	990.94086	-220.81578	686.73645	1081.44617	-28.18244	753.34296	895.90826	15.02497	710.71759	888.87775	40.00601	781.77325	824.78448	28.50923	737.12158	814.00946	55.91653	773.62256	752.51270	55.15527	729.79907	724.58344	-6.30223	980.01520	737.03101	-129.53256	988.39679	712.99408	-71.81069	1063.62207	706.88452	-116.12048	1051.45557	687.59375	-81.99156	651.93317	1063.85352	-418.07401	700.95343	902.06598	-485.24594	657.35065	880.22919	-486.18109	744.07300	835.24487	-495.73425	695.09521	805.89954	-496.59268	776.47260	749.55786	-505.06931	732.11951	714.52069	-452.59097	988.84094	731.54321	-335.09555	1002.72162	704.29425	-392.73813	1075.38562	699.95905	-357.83142	1052.66357	686.02032	-391.36279	644.97046	302.16766	98.76926	664.99463	298.46078	-529.98224	
662	4.407	749.27405	1025.15857	-231.76433	748.67688	859.24219	-207.95308	631.80267	1134.95715	-239.50230	543.82275	990.74628	-220.75322	694.58307	1081.27551	-27.98997	760.90009	896.38647	15.46740	718.00488	889.06628	39.92919	789.60699	824.64893	28.98434	744.90155	814.02539	56.35595	781.39856	752.39447	55.50155	737.68140	724.40070	-5.99431	987.92133	737.13440	-129.24626	996.22076	713.17847	-71.50102	1071.38647	707.00281	-116.03036	1059.22058	687.94440	-81.55931	660.10480	1063.83435	-417.84637	709.21112	902.12909	-485.10583	665.67871	880.17682	-486.15857	752.39221	835.23840	-495.58368	703.29376	806.02795	-496.61441	784.77692	749.58295	-504.91269	740.29553	714.52802	-452.51041	996.96033	731.64752	-334.75409	1010.84283	704.43896	-392.38281	1083.65771	700.14954	-357.38770	1060.83032	686.10931	-390.95221	653.11047	302.17944	98.84171	673.47107	298.34735	-529.83948	
663	4.413	758.11157	1025.05872	-231.68997	756.70160	859.07098	-207.79135	639.78082	1134.82727	-239.33955	551.78558	990.56287	-220.68784	702.35425	1081.08362	-27.76045	768.81525	896.05121	15.63230	725.73914	888.85107	40.22941	797.28015	824.52136	29.38627	752.53546	813.81494	56.52333	789.20581	752.20996	55.76625	745.50098	724.21234	-5.70648	995.70386	737.22540	-128.97507	1004.04333	713.29004	-71.24435	1079.32751	707.29504	-115.58859	1067.16895	688.01959	-81.42759	668.11078	1063.75854	-417.65982	717.47137	902.12000	-484.94080	673.85828	880.29022	-486.10492	760.66113	835.36865	-495.53506	711.61560	806.07684	-496.56018	792.98199	749.64349	-504.81146	748.61450	714.53436	-452.50897	1004.91986	731.71588	-334.41953	1019.03687	704.56287	-392.04654	1091.67517	700.25684	-356.96066	1069.03711	686.18689	-390.57391	661.16284	302.25171	98.95947	681.87164	298.39816	-529.76056	
